PathFileType	4	(X/Y/Z)	Patient4_TMGait_0pt5_01_right_30.trc.trc
DataRate	CameraRate	NumFrames	NumMarkers	Units	OrigDataRate	OrigDataStartFrame	OrigNumFrames
76.502732240437	76.502732240437	7	33	mm	76.502732240437	89	       141
Frame#	Time	L.ASIS			Sacral			L.Shoulder			Chest			R.Shoulder			Neck			R.ASIS			R.Thigh.Superior			R.Thigh.Lateral			R.Thigh.Inferior			R.Patella			L.Thigh.Superior			L.Thigh.Lateral			L.Thigh.Inferior			L.Patella			L.Shank.Superior			L.Shank.Lateral			L.Shank.Inferior			R.Shank.Superior			R.Shank.Lateral			R.Shank.Inferior			R.Heel			R.Midfoot.Superior			R.Midfoot.Lateral			R.Toe			L.Heel			L.Midfoot.Lateral			L.Midfoot.Superior			L.Toe			L.Elbow			L.Wrist			R.Elbow			R.Wrist			
		X1	Y1	Z1	X2	Y2	Z2	X3	Y3	Z3	X4	Y4	Z4	X5	Y5	Z5	X6	Y6	Z6	X7	Y7	Z7	X8	Y8	Z8	X9	Y9	Z9	X10	Y10	Z10	X11	Y11	Z11	X12	Y12	Z12	X13	Y13	Z13	X14	Y14	Z14	X15	Y15	Z15	X16	Y16	Z16	X17	Y17	Z17	X18	Y18	Z18	X19	Y19	Z19	X20	Y20	Z20	X21	Y21	Z21	X22	Y22	Z22	X23	Y23	Z23	X24	Y24	Z24	X25	Y25	Z25	X26	Y26	Z26	X27	Y27	Z27	X28	Y28	Z28	X29	Y29	Z29	X30	Y30	Z30	X31	Y31	Z31	X32	Y32	Z32	X33	Y33	Z33	

89	40.590285714286	877.286081807790	957.088090704001	312.161013278893	672.760508956586	1009.938291838367	480.913668142021	837.127239669866	1432.683457353985	287.273984439836	952.305623498132	1361.537193439164	438.945514287095	884.697541069833	1438.903284950828	619.081666462085	854.542240927523	1495.025067121367	436.286205901735	902.039649287488	939.496054898800	584.795336669925	923.308896446565	730.274288127313	568.023857123448	833.990317636691	629.269628237668	632.687520918233	907.669840743420	563.660717420789	558.234910668869	892.057163100329	457.934390808503	577.390509775633	944.124496087876	760.915399519303	350.048739439531	870.765249591790	636.510561269451	290.997672243925	963.403128821864	568.515858386856	355.422362958719	971.767487091170	496.868253713001	365.572673612366	947.721657554779	422.866142602984	357.905195287299	865.200958942730	304.631758019468	306.072962472736	918.530429252985	196.155445615778	378.015041072351	817.692562725615	391.148784305329	583.335040752756	700.799217303324	343.329075397127	643.686373332312	692.037310801221	234.650886381611	592.352575933513	492.263160277544	153.461092141461	565.907065772231	665.691522712709	115.719124951220	603.317894565619	558.665893174839	101.104917313728	637.544609889575	744.001839907651	32.359361324067	627.126686898998	793.629726832928	38.152504736199	415.807923133497	869.445183159673	35.982581160422	336.778966283460	952.366274226427	96.830333178095	365.221840527785	1081.306757724625	42.902595484563	339.721801765841	765.699332393665	1079.503359814998	183.688223329159	837.046312745932	828.189711316440	181.570151421354	917.708654956371	1091.687981386995	732.209040794991	1129.988515908659	948.863820975938	700.264621594662	
90	40.603357142857	877.725226085502	957.333037509237	310.020051695626	672.136247484929	1010.065030707148	477.576177760448	838.393716442337	1432.908538637127	284.789481131899	952.387431123257	1361.800836461026	437.393697729882	883.354453260528	1439.068231627585	617.008989238267	854.629645639529	1495.297888685781	433.909467578810	901.189296524041	939.900918862865	582.733243872099	927.691250238378	732.253036623257	565.313647068759	841.752372111393	629.398961271330	630.579270029841	916.969729202700	565.117410770579	555.847318880455	902.870667692420	458.024734708235	576.031225168122	943.310951949820	760.009507064831	347.014208680045	868.390458855944	636.301989022425	288.829075385185	960.296962817520	567.595562091047	353.271807947515	967.931063860064	496.088505651228	363.812324038058	943.562842879815	422.122837368165	356.402559178046	860.456636235376	304.186348487740	304.864321159904	912.890898508014	195.704412865782	377.376733960597	826.697375117876	392.011146372207	582.117927533726	708.230598282278	347.993385846592	642.440662067150	696.368802510029	239.376099942502	591.855798333049	494.806576189246	167.087509343845	565.574968100420	665.731612651722	119.710887862393	603.089415447268	558.152063592234	111.249261347006	637.354806062666	738.598173279759	31.276167911128	627.269939074220	787.058953383893	38.114624157547	415.674291537610	862.874796816516	35.872475953027	336.613167444672	945.847866834668	96.673105416554	365.090375127744	1074.812894526774	42.619651176605	339.670118847084	773.430794870996	1079.148533396671	178.360826556284	852.507579612731	830.072408571088	176.412198665058	909.511793463988	1091.258966701097	730.801267892390	1112.548841565139	933.836777516058	702.997983919989	
91	40.616428571429	878.016760633596	957.547193511992	308.017572072076	671.355138378822	1010.142922758022	474.347451962292	839.513908057048	1433.049264357841	282.449584420108	952.347628298059	1361.992811210087	435.974536231019	881.909380471655	1439.172064413548	615.072486332633	854.632655308193	1495.511464747206	431.662234296579	900.207717362384	940.276109528881	580.831863302739	932.125708674462	734.522562139622	562.468897311768	849.826505995579	629.758494115471	628.407908303903	926.496884745223	566.981047737326	553.261200434750	914.082887639411	458.567826262288	574.297479846318	942.398510821979	759.131222938034	344.133714018520	865.935807503438	636.115324599095	286.742713688746	957.099908960697	566.691921026173	351.205537087969	964.009863252916	495.324497082508	362.125760145914	939.331266780757	421.404061934074	354.959573974535	855.662853368811	303.765266361751	303.692733016682	907.218638375928	195.271496678919	376.756288233697	836.232048113021	393.198005226976	580.585944279453	716.390246490047	352.894151420057	640.996418891002	701.444665022053	244.470304301586	591.070851589696	498.504050961087	181.033878540493	564.930561162491	666.625272779040	124.354596476206	602.695357843903	558.684146886231	121.967678370003	636.939545774273	733.885721965247	30.328728055481	627.368127729255	780.499681344358	38.081188126997	415.535281486809	856.313041704191	35.778738594421	336.439753481256	939.327517130881	96.535509961912	364.948942306991	1068.315544229136	42.383702738974	339.606263229663	781.487681506115	1078.817476663096	173.120901017383	868.142247576932	832.195451012446	171.466508377428	900.961308857584	1090.893083298653	729.522064188931	1093.625700743163	919.499577604154	705.927800404399	
92	40.629500000000	878.175644755004	957.758180729036	306.165300603385	670.465952012068	1010.196712875002	471.252855423715	840.494628707506	1433.146880427438	280.262865053057	952.194010279606	1362.153151768541	434.694320215328	880.370743572295	1439.248996076914	613.278626827083	854.557764356646	1495.702214000159	429.556785207216	899.115005180507	940.663263414350	579.087371429157	936.509263945637	737.107837676979	559.567123383056	858.016204364469	630.423593963821	626.198910195853	936.063956448532	569.298926437552	550.554936091934	925.502971380014	459.628742338261	572.245837073738	941.364490651419	758.278376587505	341.454910449865	863.387325954447	635.956589246738	284.773677906638	953.788004403439	565.808976587331	349.276312438134	959.974210425573	494.579069039861	360.562756675703	935.000582070900	420.720465483442	353.613961263609	850.800707667258	303.378350936611	302.583158787915	901.498288039369	194.864293433410	376.174469419851	846.133010390089	394.756841269695	578.772063873971	725.120090096751	357.971095505673	639.356943422036	707.219910565031	249.842020676000	589.999794478139	503.296899943215	194.852482396980	563.960415538866	668.473146150084	129.532299502051	602.105838143401	560.348696573177	132.906408867734	636.267181790845	730.171813309266	29.693651895178	627.361878047086	773.947634900006	38.051853854668	415.395010438398	849.756034202838	35.701377879024	336.265402226939	932.801097974567	96.418493718713	364.804067354614	1061.809943511365	42.194431348466	339.532429119196	789.803463880389	1078.566707961789	168.042629260580	883.865252170935	834.601856697395	166.758867446129	892.073063369257	1090.644231362084	728.361745974341	1073.319730459808	906.044915298326	709.006069754183	
93	40.642571428571	878.223454119075	957.994237750728	304.467126788522	669.520783740156	1010.252932971822	468.316941002370	841.356477902462	1433.245624033909	278.232434561140	951.940392281484	1362.323210066979	433.557695740527	878.747535600513	1439.335726192579	611.628492018729	854.412823951843	1495.906889014893	427.601323919714	897.935323776864	941.103046596358	577.492585669069	940.746294198384	740.016553715699	556.692803134317	866.129983194534	631.450277971014	623.988533092716	945.492411844328	572.096106654761	547.815699675706	936.944800934503	461.251512506199	569.956297187725	940.184327859152	757.446627525766	339.017868030147	860.727894300042	635.832277947478	282.951003243843	950.331960327952	564.950495739741	347.529906488767	955.786927160987	493.854875620048	359.163069059804	930.539243007360	420.082609437829	352.394573371404	845.846313295033	303.032911544072	301.555441537494	895.714553501352	194.490091096299	375.646167507112	856.244384422302	396.714562641484	576.733798855752	734.261312756709	363.134830095302	637.541583712880	713.654524654822	255.359607870093	588.665244762127	509.097449171835	208.040881106054	562.681264409762	671.382555670128	135.060967035661	601.295790721902	563.223512727863	143.644454193322	635.327354188337	727.816885152659	29.541283245355	627.186094068902	767.397671739454	38.027155451360	415.256748147630	843.199693780311	35.638931789062	336.095981999175	926.265599353233	96.320787966921	364.661092900487	1055.292171026264	42.047075331588	339.451502292055	798.289786240197	1078.454465631957	163.196042990707	899.585086068022	837.340146531957	162.311085374922	882.868342798753	1090.574265070196	727.304946928555	1051.772491567227	893.664142902917	712.171176659544	
94	40.655642857143	878.189952423385	958.282836351272	302.918756668007	668.568329570508	1010.338726392397	465.560426741557	842.130600003069	1433.388939917922	276.357110002302	951.605463827436	1362.541432521700	432.566915165715	877.050492058199	1439.467682156464	610.118329565419	854.206936544290	1496.159044579120	425.800459851409	896.693389984565	941.631578159224	576.040442079045	944.753662412618	743.238246248738	553.927004106155	873.996989862732	632.870837370470	621.820369640366	954.623287746000	575.372872368719	545.129149398348	948.238836589111	463.456139900693	567.523134075018	938.836397037407	756.631378322662	336.853447642192	857.939540395680	635.749509809555	281.296947676004	946.701268423941	564.119730364310	346.000236814506	951.408930285537	493.155054021558	357.953761500425	925.915377188453	419.500810621903	351.319880462297	840.774694713664	302.734435405550	300.623229202834	889.854448038887	194.155897091427	375.179773022869	866.428916647630	399.073522104628	574.546409171916	743.668688493736	368.267627803026	635.585716166132	720.719711360568	260.856797806469	587.107936886121	515.806096692053	220.084499843705	561.137956206819	675.464559049393	140.706371335398	600.251375040268	567.377257694758	153.729424187831	634.133013712016	727.208469641173	29.997156972997	626.781031050557	760.844420322623	38.008507815018	415.122542250455	836.640554633541	35.589170870363	335.936160322956	919.719581798288	96.239915673864	364.523677873279	1048.759717768472	41.934187041945	339.366643546928	806.840874090838	1078.533998985265	158.642385813844	915.208595247841	840.460952379651	158.140206306936	873.370468767270	1090.746189998464	726.333019953625	1029.162853608018	882.535352075406	715.352024850780	
95	40.668714285714	878.113664165625	958.648978482162	301.509365818238	667.648376071371	1010.479866282104	462.997660803454	842.854475901607	1433.615136419106	274.632701124825	951.210952047242	1362.839364959934	431.721558841149	875.292277499854	1439.675093276685	608.740763383013	853.950170545903	1496.485763521323	424.155681922683	895.411038742136	942.277272913752	574.726527160519	948.463763271992	746.745289326777	551.338451657177	881.478901165975	634.692499369599	619.741022028308	963.324484972682	579.104387654807	542.570816183848	959.240084666093	466.237708091803	565.045415650154	937.305092573805	755.828715094883	334.982283650322	855.005594284636	635.715642700104	279.825909835106	942.867915561172	563.318974415834	344.705684785619	946.804574141088	492.483585949939	356.947383832475	921.101183294687	418.984644340078	350.397130704838	835.563157283494	302.487050100161	299.793419456017	883.908883307771	193.868192548570	374.777111407760	876.574403723009	401.810018946124	572.294374654820	753.221520866758	373.227839077358	633.539216419956	728.401294034441	266.142900726807	585.382557021390	523.331110128704	230.502301703573	559.396162875358	680.827751669376	146.202129202192	598.976013959746	572.868382252753	162.718590667513	632.718955969416	728.720341455283	31.103547585333	626.106036866410	754.282832666940	37.997983255376	414.993201939543	830.076274046541	35.549736608533	335.789211888499	913.163285392378	96.173011881194	364.393543787054	1042.211739406616	41.847146538273	339.280903063889	815.339720124229	1078.846884282728	154.430464218673	930.645935554050	844.012690247009	154.257893210106	863.602358333949	1091.217379019217	725.426682675406	1005.700307281133	872.810472774103	718.473794350011	
